#!OML:ASF F:\VICON\USERDATA\INSTALL\rory3\rory3.ASF
:FULLY-SPECIFIED
:DEGREES
64
root 1.2400296125165446 18.1453673790209 28.116427365593182 -1.1293625770674323 4.947914556183919 0.9138932532361626
lfemur 3.2040258044610077 -5.036366715543817 -22.847518374918522
ltibia 22.247496226665163
lfoot 15.077493442961233 -12.719915446013527
ltoes -5.350356167545339
rfemur -22.151812863758153 -1.9633098975496468 24.34475344903889
rtibia 25.865849007406332
rfoot 0.4321283448444966 -12.649623755237513
rtoes 0.6893062484327985
lowerback 10.205370331124717 -2.8587228418218245 -0.14501471720585568
upperback -0.39625308845892315 -3.4091266832546285 2.445403017631329
thorax -5.514758774048703 -1.7226703250483864 3.592027939049908
lowerneck -16.269448349721703 -3.224580819378381 -3.2548731251903407
upperneck 22.40811630974974 -4.021555752157589 1.8507048881730195
head 9.906153765907376 -1.9179719572913918 0.6796366980429187
lclavicle -2.0286304552507902e-15 -7.131379354375931e-16
lhumerus -32.237234729057256 1.509407864564095 80.31248667284336
lradius 33.26792512068943
lwrist 7.539101697398583
lhand -28.091748096267914 19.746662123522412
lfingers 7.12502
lthumb -0.8975047021708291 50.314056827828914
rclavicle -2.0272800681211164e-15 -7.122588671991758e-16
rhumerus -32.34434517764616 -20.475280666238433 -74.32349636485858
rradius 24.01670373773981
rwrist 3.651243865333264
rhand -16.310892924226476 21.868420442941957
rfingers 7.12502
rthumb 9.705479194163816 -6.7839847176361925
65
root 1.2593906212168047 18.19329913276093 28.708482604079705 -0.8848134130493595 4.644378839262807 1.1612573081622055
lfemur 2.861156374975316 -4.925558669751943 -23.316536494122616
ltibia 22.318613347571176
lfoot 13.83920030484103 -13.85380312247473
ltoes -6.845104809921956
rfemur -21.54999989258385 -1.711273641390736 24.60143412263997
rtibia 24.569276157360953
rfoot -0.10999335764161877 -11.494135502243505
rtoes -0.19385524182812341
lowerback 10.138710680709211 -2.6786989070272447 -0.32261156869045093
upperback -0.49610276078910587 -3.378479368443075 2.311697441456561
thorax -5.532005075206937 -1.6913103523071262 3.4578639057566427
lowerneck -16.175764699730856 -3.2042039586068154 -3.2294846484696014
upperneck 22.315213804754947 -3.941660063838467 1.7479778153247807
head 9.825862856208278 -1.885306853530477 0.6760062199961774
lclavicle -2.0286003752296053e-15 -7.131196323143947e-16
lhumerus -32.64094291465504 1.3798858432201921 80.26314552387643
lradius 33.798799361212374
lwrist 8.198877545843944
lhand -28.19480048868075 19.18693618474453
lfingers 7.12502
lthumb -1.1378902151291812 49.99003048071535
rclavicle -2.0281757567012083e-15 -7.128307988965709e-16
rhumerus -32.30013883612329 -20.229296929285628 -74.60167383146589
rradius 24.472527768278947
rwrist 3.27970343917948
rhand -16.23188663285414 21.923253562641495
rfingers 7.12502
rthumb 9.728051182073607 -6.230934503376611
66
root 1.2623028129438612 18.188553594148722 29.439198963140754 -0.5919842955052332 4.585102241540311 0.2074707120855548
lfemur 1.9547781941101388 -4.949706706762721 -22.55826007387952
ltibia 23.11196022979958
lfoot 13.029649934471509 -13.83096916779154
ltoes -4.8513482045054666
rfemur -20.48879809323651 -1.4400225699202562 25.832686302248433
rtibia 23.61439360384675
rfoot -1.3000717124256855 -10.717015464298859
rtoes 1.1823220646571433
lowerback 10.1116004062102 -2.688634849488948 0.36750006679567054
upperback -0.5730496842016052 -3.368464383907465 2.322455930162265
thorax -5.57249470512809 -1.7058221707800538 3.0871774948738935
lowerneck -16.18806422461529 -3.2081168702395626 -3.3080203733439477
upperneck 22.242480247636244 -3.974991993446517 1.675868560950943
head 9.779351550669583 -1.9086851056301188 0.688840968890098
lclavicle -2.025008320804683e-15 -7.108263583811509e-16
lhumerus -32.87877208384313 1.6300492948249108 80.17644851269317
lradius 33.83997503982563
lwrist 8.364686227275298
lhand -28.370643457420705 18.507625070722263
lfingers 7.12502
lthumb -1.3979256919664387 49.1532055424564
rclavicle -2.0290905179978003e-15 -7.134148531366393e-16
rhumerus -32.17494041114148 -20.002754621433205 -74.6664001907536
rradius 24.83447782476557
rwrist 2.933758124729261
rhand -16.280467946600787 22.308356310448154
rfingers 7.12502
rthumb 9.51499414535749 -6.05177089313588
67
root 1.2704739748737532 18.154553133148227 29.762321229723533 -0.4709213766345979 4.017073962882256 -0.9628386409151239
lfemur 1.105860996401507 -4.452827433815676 -21.661376935299835
ltibia 24.006971391174496
lfoot 11.745234305091879 -13.984035260097151
ltoes -5.051324043006748
rfemur -19.363631554133846 -0.8763467518323127 27.08854421267688
rtibia 23.533731196429095
rfoot -2.646205084535395 -9.710290482862355
rtoes 2.4621062247001237
lowerback 10.096859776886605 -2.521303458627473 1.1550086296358621
upperback -0.5888240582122874 -3.100407406691151 2.356842296923828
thorax -5.644163524595015 -1.6073214587843392 2.7129560102512875
lowerneck -16.12988773216215 -3.180552643000339 -3.3200272727451052
upperneck 22.11284415063519 -3.9298177423401484 1.5838156024720245
head 9.713068689091118 -1.8977842860170875 0.684975117192447
lclavicle -2.0266580616298214e-15 -7.118785642030772e-16
lhumerus -32.92998643283322 2.1423552298880812 80.08516745682844
lradius 33.514612826038345
lwrist 9.002179461397903
lhand -29.03597936716517 17.755565813345466
lfingers 7.12502
lthumb -2.0518586646441053 48.34191285215617
rclavicle -2.0263234809638507e-15 -7.116479927002686e-16
rhumerus -31.70045249579913 -19.473378847678255 -74.96832305306619
rradius 24.84666004748296
rwrist 3.0473147332751727
rhand -16.42422274249869 22.504782243466796
rfingers 7.12502
rthumb 9.364333590378685 -5.864275062811919
